<?xml version="1.0" encoding="utf-8"?>
<!-- Generator: Adobe Illustrator 23.0.1, SVG Export Plug-In . SVG Version: 6.00 Build 0)  -->
<svg version="1.1" id="Titles" xmlns="http://www.w3.org/2000/svg" xmlns:xlink="http://www.w3.org/1999/xlink" x="0px" y="0px"
	 viewBox="0 0 64 64" style="enable-background:new 0 0 64 64;" xml:space="preserve">
<style type="text/css">
	.st0{fill:#FFFFFF;}
	.st1{fill:none;stroke:#556A8A;stroke-width:2;stroke-miterlimit:10;}
	.st2{fill:#E5E5E5;}
	.st3{fill:#2BC7F4;}
</style>
<title>i_responsive</title>
<g>
	<path class="st0" d="M58.9,53.1c0,1.4-1.1,2.6-2.5,2.6l0,0h-26c-1.4,0-2.5-1.2-2.5-2.6l0,0V4.1c0-1.4,1.1-2.6,2.5-2.6l0,0h26
		c1.4,0,2.5,1.2,2.5,2.6v0V53.1z"/>
	<path class="st1" d="M58.9,53.1c0,1.4-1.1,2.6-2.5,2.6l0,0h-26c-1.4,0-2.5-1.2-2.5-2.6l0,0V4.1c0-1.4,1.1-2.6,2.5-2.6l0,0h26
		c1.4,0,2.5,1.2,2.5,2.6v0V53.1z"/>
	<path class="st2" d="M43.4,48.4c1,0,1.9,0.8,1.9,1.9c0,1-0.8,1.9-1.9,1.9s-1.9-0.8-1.9-1.9C41.5,49.2,42.3,48.4,43.4,48.4z"/>
	<rect x="31.6" y="5.2" class="st3" width="23.6" height="42"/>
	<path class="st0" d="M35.4,59.9c0,1.4-1.1,2.6-2.5,2.6l0,0h-26c-1.4,0-2.5-1.2-2.5-2.6l0,0V10.8c0-1.4,1.1-2.6,2.5-2.6l0,0h26
		c1.4,0,2.5,1.2,2.5,2.6v0V59.9z"/>
	<path class="st1" d="M35.4,59.9c0,1.4-1.1,2.6-2.5,2.6l0,0h-26c-1.4,0-2.5-1.2-2.5-2.6l0,0V10.8c0-1.4,1.1-2.6,2.5-2.6l0,0h26
		c1.4,0,2.5,1.2,2.5,2.6v0V59.9z"/>
	<ellipse class="st3" cx="19.9" cy="57" rx="1.9" ry="1.9"/>
	<rect x="8.1" y="11.9" class="st2" width="23.6" height="42"/>
</g>
</svg>
